{
  "accessors": [
    {
      "bufferView": 2,
      "componentType": 5126,
      "count": 65532,
      "max": [
        57.114570617675781,
        -9.7483596801757812,
        64.294319152832031
      ],
      "min": [
        -57.160446166992188,
        -83.967254638671875,
        -69.671463012695312
      ],
      "type": "VEC3"
    },
    {
      "bufferView": 2,
      "byteOffset": 786384,
      "componentType": 5126,
      "count": 65532,
      "max": [
        0.99999773502349854,
        0.99866145849227905,
        0.9999728798866272
      ],
      "min": [
        -0.99999773502349854,
        -0.9999997615814209,
        -0.99997186660766602
      ],
      "type": "VEC3"
    },
    {
      "bufferView": 3,
      "componentType": 5126,
      "count": 65532,
      "max": [
        0.99962162971496582,
        0.99999493360519409,
        0.99994814395904541,
        1
      ],
      "min": [
        -0.99997174739837646,
        -0.99994015693664551,
        -0.99998795986175537,
        -1
      ],
      "type": "VEC4"
    },
    {
      "bufferView": 1,
      "componentType": 5126,
      "count": 65532,
      "max": [
        0.99804699420928955,
        0.99801397323608398
      ],
      "min": [
        0.0019529999699443579,
        0.0019859999883919954
      ],
      "type": "VEC2"
    },
    {
      "bufferView": 0,
      "componentType": 5125,
      "count": 314850,
      "max": [
        65531
      ],
      "min": [
        0
      ],
      "type": "SCALAR"
    },
    {
      "bufferView": 2,
      "byteOffset": 1572768,
      "componentType": 5126,
      "count": 65532,
      "max": [
        57.160446166992188,
        -43.738666534423828,
        69.671585083007812
      ],
      "min": [
        -56.817916870117188,
        -107.15118408203125,
        -0.9514240026473999
      ],
      "type": "VEC3"
    },
    {
      "bufferView": 2,
      "byteOffset": 2359152,
      "componentType": 5126,
      "count": 65532,
      "max": [
        0.99994874000549316,
        0.97789949178695679,
        0.99998956918716431
      ],
      "min": [
        -0.99999737739562988,
        -0.99999701976776123,
        -0.99997878074645996
      ],
      "type": "VEC3"
    },
    {
      "bufferView": 3,
      "byteOffset": 1048512,
      "componentType": 5126,
      "count": 65532,
      "max": [
        0.99692118167877197,
        0.99987268447875977,
        0.99998098611831665,
        1
      ],
      "min": [
        -0.9999883770942688,
        -0.99999898672103882,
        -0.99998557567596436,
        -1
      ],
      "type": "VEC4"
    },
    {
      "bufferView": 1,
      "byteOffset": 524256,
      "componentType": 5126,
      "count": 65532,
      "max": [
        0.99804699420928955,
        0.99801397323608398
      ],
      "min": [
        0.0019529999699443579,
        0.12512399256229401
      ],
      "type": "VEC2"
    },
    {
      "bufferView": 0,
      "byteOffset": 1259400,
      "componentType": 5125,
      "count": 324636,
      "max": [
        65531
      ],
      "min": [
        0
      ],
      "type": "SCALAR"
    },
    {
      "bufferView": 2,
      "byteOffset": 3145536,
      "componentType": 5126,
      "count": 65532,
      "max": [
        48.194557189941406,
        -78.7811279296875,
        69.615699768066406
      ],
      "min": [
        -22.711105346679688,
        -104.101318359375,
        -0.24501000344753265
      ],
      "type": "VEC3"
    },
    {
      "bufferView": 2,
      "byteOffset": 3931920,
      "componentType": 5126,
      "count": 65532,
      "max": [
        0.99983662366867065,
        0.94535034894943237,
        0.99895954132080078
      ],
      "min": [
        -0.99994146823883057,
        -0.99999737739562988,
        -0.99999237060546875
      ],
      "type": "VEC3"
    },
    {
      "bufferView": 3,
      "byteOffset": 2097024,
      "componentType": 5126,
      "count": 65532,
      "max": [
        0.99946653842926025,
        0.99987024068832397,
        0.99970948696136475,
        1
      ],
      "min": [
        -0.9999922513961792,
        -0.99987483024597168,
        -0.99999046325683594,
        -1
      ],
      "type": "VEC4"
    },
    {
      "bufferView": 1,
      "byteOffset": 1048512,
      "componentType": 5126,
      "count": 65532,
      "max": [
        0.99804699420928955,
        0.99801397323608398
      ],
      "min": [
        0.0019529999699443579,
        0.12512399256229401
      ],
      "type": "VEC2"
    },
    {
      "bufferView": 0,
      "byteOffset": 2557944,
      "componentType": 5125,
      "count": 309249,
      "max": [
        65531
      ],
      "min": [
        0
      ],
      "type": "SCALAR"
    },
    {
      "bufferView": 2,
      "byteOffset": 4718304,
      "componentType": 5126,
      "count": 65532,
      "max": [
        28.623619079589844,
        -78.436943054199219,
        69.650039672851562
      ],
      "min": [
        -56.774986267089844,
        -103.9788818359375,
        -0.30691498517990112
      ],
      "type": "VEC3"
    },
    {
      "bufferView": 2,
      "byteOffset": 5504688,
      "componentType": 5126,
      "count": 65532,
      "max": [
        0.99997735023498535,
        0.99550199508666992,
        0.99997448921203613
      ],
      "min": [
        -0.99994122982025146,
        -0.99996501207351685,
        -0.99998164176940918
      ],
      "type": "VEC3"
    },
    {
      "bufferView": 3,
      "byteOffset": 3145536,
      "componentType": 5126,
      "count": 65532,
      "max": [
        0.99880689382553101,
        0.99983268976211548,
        0.99994385242462158,
        1
      ],
      "min": [
        -0.99999785423278809,
        -0.99999278783798218,
        -0.99999988079071045,
        -1
      ],
      "type": "VEC4"
    },
    {
      "bufferView": 1,
      "byteOffset": 1572768,
      "componentType": 5126,
      "count": 65532,
      "max": [
        0.99804699420928955,
        0.99801397323608398
      ],
      "min": [
        0.0019529999699443579,
        0.019860999658703804
      ],
      "type": "VEC2"
    },
    {
      "bufferView": 0,
      "byteOffset": 3794940,
      "componentType": 5125,
      "count": 279477,
      "max": [
        65531
      ],
      "min": [
        0
      ],
      "type": "SCALAR"
    },
    {
      "bufferView": 2,
      "byteOffset": 6291072,
      "componentType": 5126,
      "count": 59933,
      "max": [
        13.317642211914062,
        -78.237739562988281,
        69.573577880859375
      ],
      "min": [
        -56.737823486328125,
        -96.765617370605469,
        6.2246551513671875
      ],
      "type": "VEC3"
    },
    {
      "bufferView": 2,
      "byteOffset": 7010268,
      "componentType": 5126,
      "count": 59933,
      "max": [
        0.99984097480773926,
        0.96814650297164917,
        0.9998735785484314
      ],
      "min": [
        -0.99992024898529053,
        -0.99999147653579712,
        -0.99999064207077026
      ],
      "type": "VEC3"
    },
    {
      "bufferView": 3,
      "byteOffset": 4194048,
      "componentType": 5126,
      "count": 59933,
      "max": [
        1,
        0.9999280571937561,
        0.99996870756149292,
        1
      ],
      "min": [
        -0.99999970197677612,
        -0.9999927282333374,
        -0.9999890923500061,
        -1
      ],
      "type": "VEC4"
    },
    {
      "bufferView": 1,
      "byteOffset": 2097024,
      "componentType": 5126,
      "count": 59933,
      "max": [
        0.99804699420928955,
        0.99801397323608398
      ],
      "min": [
        0.0019529999699443579,
        0.0019859999883919954
      ],
      "type": "VEC2"
    },
    {
      "bufferView": 0,
      "byteOffset": 4912848,
      "componentType": 5125,
      "count": 271788,
      "max": [
        59932
      ],
      "min": [
        0
      ],
      "type": "SCALAR"
    }
  ],
  "asset": {
    "extras": {
      "author": "thehydrous (https://sketchfab.com/thehydro.us)",
      "license": "CC-BY-NC-SA-4.0 (http://creativecommons.org/licenses/by-nc-sa/4.0/)",
      "source": "https://sketchfab.com/models/efdf043f7e0a49a4bafe1ef9556c40fc",
      "title": "Acropora papillare scene"
    },
    "generator": "Sketchfab-3.22.13",
    "version": "2.0"
  },
  "bufferViews": [
    {
      "buffer": 0,
      "byteLength": 6000000,
      "byteOffset": 0,
      "name": "floatBufferViews",
      "target": 34963
    },
    {
      "buffer": 0,
      "byteLength": 2576488,
      "byteOffset": 6000000,
      "byteStride": 8,
      "name": "floatBufferViews",
      "target": 34962
    },
    {
      "buffer": 0,
      "byteLength": 7729464,
      "byteOffset": 8576488,
      "byteStride": 12,
      "name": "floatBufferViews",
      "target": 34962
    },
    {
      "buffer": 0,
      "byteLength": 5152976,
      "byteOffset": 16305952,
      "byteStride": 16,
      "name": "floatBufferViews",
      "target": 34962
    }
  ],
  "buffers": [
    {
      "byteLength": 21458928,
      "uri": "scene.bin"
    }
  ],
  "extensionsUsed": [
    "KHR_materials_unlit"
  ],
  "images": [
    {
      "uri": "textures/Material_0_baseColor.jpeg"
    }
  ],
  "materials": [
    {
      "doubleSided": true,
      "emissiveFactor": [
        0,
        0,
        0
      ],
      "extensions": {
        "KHR_materials_unlit": {}
      },
      "name": "Material_0",
      "pbrMetallicRoughness": {
        "baseColorFactor": [
          1,
          1,
          1,
          1
        ],
        "baseColorTexture": {
          "index": 0,
          "texCoord": 0
        },
        "metallicFactor": 0,
        "roughnessFactor": 1
      }
    }
  ],
  "meshes": [
    {
      "primitives": [
        {
          "attributes": {
            "NORMAL": 1,
            "POSITION": 0,
            "TANGENT": 2,
            "TEXCOORD_0": 3
          },
          "indices": 4,
          "material": 0,
          "mode": 4
        }
      ]
    },
    {
      "primitives": [
        {
          "attributes": {
            "NORMAL": 6,
            "POSITION": 5,
            "TANGENT": 7,
            "TEXCOORD_0": 8
          },
          "indices": 9,
          "material": 0,
          "mode": 4
        }
      ]
    },
    {
      "primitives": [
        {
          "attributes": {
            "NORMAL": 11,
            "POSITION": 10,
            "TANGENT": 12,
            "TEXCOORD_0": 13
          },
          "indices": 14,
          "material": 0,
          "mode": 4
        }
      ]
    },
    {
      "primitives": [
        {
          "attributes": {
            "NORMAL": 16,
            "POSITION": 15,
            "TANGENT": 17,
            "TEXCOORD_0": 18
          },
          "indices": 19,
          "material": 0,
          "mode": 4
        }
      ]
    },
    {
      "primitives": [
        {
          "attributes": {
            "NORMAL": 21,
            "POSITION": 20,
            "TANGENT": 22,
            "TEXCOORD_0": 23
          },
          "indices": 24,
          "material": 0,
          "mode": 4
        }
      ]
    }
  ],
  "nodes": [
    {
      "children": [
        1
      ],
      "name": "RootNode (gltf orientation matrix)",
      "rotation": [
        -0.70710678118654746,
        -0,
        -0,
        0.70710678118654757
      ]
    },
    {
      "children": [
        2
      ],
      "matrix": [
        0.64293783903121948,
        0.76307368278503418,
        -0.065951131284236908,
        0,
        0.17917294800281525,
        -0.23356325924396515,
        -0.95569097995758057,
        0,
        -0.74466639757156372,
        0.60263323783874512,
        -0.28688880801200867,
        0,
        10.472535133361816,
        -72.101158142089844,
        -55.859752655029297,
        1
      ],
      "name": "RootNode (model correction matrix)"
    },
    {
      "children": [
        3,
        4,
        5,
        6,
        7
      ],
      "name": "20170721_Iriomote_Unarizaki_1m_Apapp_dive.obj.cleaner.materialmerger.gles"
    },
    {
      "mesh": 0,
      "name": ""
    },
    {
      "mesh": 1,
      "name": ""
    },
    {
      "mesh": 2,
      "name": ""
    },
    {
      "mesh": 3,
      "name": ""
    },
    {
      "mesh": 4,
      "name": ""
    }
  ],
  "samplers": [
    {
      "magFilter": 9729,
      "minFilter": 9987,
      "wrapS": 10497,
      "wrapT": 10497
    }
  ],
  "scene": 0,
  "scenes": [
    {
      "name": "OSG_Scene",
      "nodes": [
        0
      ]
    }
  ],
  "textures": [
    {
      "sampler": 0,
      "source": 0
    }
  ]
}

