{"accessors":[{"name":"10042_Sea_Turtle_V1_1_positions","componentType":5126,"count":16410,"min":[-49.82339859008789,-50.53010177612305,-1.31850004196167],"max":[52.19559860229492,51.16559982299805,24.455799102783203],"type":"VEC3","bufferView":0,"byteOffset":0},{"name":"10042_Sea_Turtle_V1_1_normals","componentType":5126,"count":16410,"min":[-0.9990000128746033,-0.9998999834060669,-1],"max":[0.9987999796867371,0.9998999834060669,1],"type":"VEC3","bufferView":0,"byteOffset":196920},{"name":"10042_Sea_Turtle_V1_1_texcoords","componentType":5126,"count":16410,"min":[0.008999999612569809,0.009800000116229057],"max":[0.9868000149726868,0.9854000210762024],"type":"VEC2","bufferView":1,"byteOffset":0},{"name":"10042_Sea_Turtle_V1_1_0_indices","componentType":5123,"count":93981,"min":[0],"max":[16409],"type":"SCALAR","bufferView":2,"byteOffset":0}],"asset":{"generator":"obj2gltf","version":"2.0"},"buffers":[{"name":"10042_Sea_Turtle_V2_iterations-2","byteLength":1557752,"uri":"data:application/octet-stream;base64,"}],"bufferViews":[{"name":"bufferView_0","buffer":0,"byteLength":393840,"byteOffset":0,"byteStride":12,"target":34962},{"name":"bufferView_1","buffer":0,"byteLength":131280,"byteOffset":393840,"byteStride":8,"target":34962},{"name":"bufferView_2","buffer":0,"byteLength":187964,"byteOffset":525120,"target":34963},{"buffer":0,"byteOffset":713084,"byteLength":844665}],"images":[{"name":"10042_Sea_Turtle_V1_Diffuse","mimeType":"image/jpeg","bufferView":3}],"materials":[{"name":"_10042_Sea_Turtle_V2_iterations_0_10042_Sea_Turtle_V2_iterations_010042_Sea_Turtle_V1","pbrMetallicRoughness":{"baseColorTexture":{"index":0},"baseColorFactor":[1,1,1,1],"metallicFactor":0,"roughnessFactor":0.99},"emissiveFactor":[0,0,0],"alphaMode":"OPAQUE","doubleSided":false}],"meshes":[{"name":"10042_Sea_Turtle_V1_1","primitives":[{"attributes":{"POSITION":0,"NORMAL":1,"TEXCOORD_0":2},"indices":3,"material":0,"mode":4}]}],"nodes":[{"name":"10042_Sea_Turtle_V1","mesh":0}],"samplers":[{"magFilter":9729,"minFilter":9986,"wrapS":10497,"wrapT":10497}],"scene":0,"scenes":[{"nodes":[0]}],"textures":[{"name":"10042_Sea_Turtle_V1_Diffuse","sampler":0,"source":0}]}
